<svg width="26" height="26" viewBox="0 0 26 26" fill="none" xmlns="http://www.w3.org/2000/svg">
<g clip-path="url(#clip0_273:33)">
<path d="M12.6128 0.612305C5.70654 0.612305 0.112793 6.20605 0.112793 13.1123C0.112793 18.6436 3.69092 23.3154 8.65967 24.9717C9.28467 25.0811 9.51904 24.7061 9.51904 24.3779C9.51904 24.0811 9.50342 23.0967 9.50342 22.0498C6.36279 22.6279 5.55029 21.2842 5.30029 20.5811C5.15967 20.2217 4.55029 19.1123 4.01904 18.8154C3.58154 18.5811 2.95654 18.0029 4.00342 17.9873C4.98779 17.9717 5.69092 18.8936 5.92529 19.2686C7.05029 21.1592 8.84717 20.6279 9.56592 20.2998C9.67529 19.4873 10.0034 18.9404 10.3628 18.6279C7.58154 18.3154 4.67529 17.2373 4.67529 12.4561C4.67529 11.0967 5.15967 9.97168 5.95654 9.09668C5.83154 8.78418 5.39404 7.50293 6.08154 5.78418C6.08154 5.78418 7.12842 5.45605 9.51904 7.06543C10.519 6.78418 11.5815 6.64355 12.644 6.64355C13.7065 6.64355 14.769 6.78418 15.769 7.06543C18.1597 5.44043 19.2065 5.78418 19.2065 5.78418C19.894 7.50293 19.4565 8.78418 19.3315 9.09668C20.1284 9.97168 20.6128 11.0811 20.6128 12.4561C20.6128 17.2529 17.6909 18.3154 14.9097 18.6279C15.3628 19.0186 15.7534 19.7686 15.7534 20.9404C15.7534 22.6123 15.7378 23.9561 15.7378 24.3779C15.7378 24.7061 15.9722 25.0967 16.5972 24.9717C19.0788 24.1342 21.2352 22.5394 22.7628 20.4119C24.2905 18.2845 25.1124 15.7314 25.1128 13.1123C25.1128 6.20605 19.519 0.612305 12.6128 0.612305Z" fill="#F2F2F2"/>
</g>
<defs>
<clipPath id="clip0_273:33">
<rect width="25" height="25" fill="white" transform="translate(0.112793 0.612305)"/>
</clipPath>
</defs>
</svg>
